<svg xmlns="http://www.w3.org/2000/svg" version="1.1" xmlns:xlink="http://www.w3.org/1999/xlink" xmlns:svgjs="http://svgjs.dev/svgjs" width="100%" height="100%" viewBox="0 0 1000 600"><rect width="1000" height="600" x="0" y="0" fill="black"/><g><circle r="166.66666666666666" cx="335.91567484537757" cy="358.1379085058967" fill="white" transform="matrix(0.7385564323108341,0,0,0.7385564323108341,0,35.49489084567924)"/><path d="M323.33502495630034 433.1379216871593L323.33502495630034 433.1379216871593Q309.5873980669577 433.1379216871593 300.6784804347335 428.4415274081913Q291.7695628025094 423.7166701335932 287.47165046236296 416.34475426539495Q283.1452751265864 408.9728383971967 283.1452751265864 401.17397759454684L283.1452751265864 401.17397759454684Q283.1452751265864 393.60282075693783 286.84546455850057 386.7147758144514Q290.54565399041473 379.8551938675952 297.40523593727096 375.35804055803794Q304.2648178841273 370.8324242528506 313.6860694376934 370.8324242528506L313.6860694376934 370.8324242528506Q313.4868284682826 372.6825189688077 313.4868284682826 374.21952073283364Q313.4868284682826 375.7565224968595 313.4868284682826 375.7565224968595L313.4868284682826 375.7565224968595Q313.4868284682826 389.50414938620213 316.16235005751287 397.3883991757423Q318.809408651113 405.27264896528254 322.9080800218487 408.65974544526546Q327.0067513925844 412.0468419252485 331.3046637327309 412.0468419252485L331.3046637327309 412.0468419252485Q337.87961572328607 412.0468419252485 343.0029549367057 406.8096507293084Q348.1262941501253 401.5724595333684 348.1262941501253 394.62748859962176L348.1262941501253 394.62748859962176Q348.1262941501253 386.8286277969719 341.46595317267975 380.8798617102791Q334.8056121952343 374.9310956235863 324.55893376839504 367.75842072479884L324.55893376839504 367.75842072479884Q318.809408651113 363.46050838465237 312.3483086430782 358.0240762193015Q305.9156716306736 352.6161070495808 301.3900553254863 345.1303391988622Q296.89290201592905 337.6445713481435 296.89290201592905 327.3978929213042L296.89290201592905 327.3978929213042Q296.89290201592905 316.75273255564343 301.9023892468282 308.55538981417203Q306.94033947335754 300.35804707270063 315.2230712017192 294.72237393793904Q323.5342659257111 289.08670080317745 333.4678514006191 286.098086262016Q343.4014368755272 283.13793471648466 353.24963336354494 283.13793471648466L353.24963336354494 283.13793471648466Q365.3464065063413 283.13793471648466 373.11680431336106 287.0373651178096Q380.9156651160109 290.90833252350444 384.81509551733586 297.056339579608Q388.68606292303065 303.20434663571154 388.68606292303065 309.7792986262667L388.68606292303065 309.7792986262667Q388.68606292303065 315.9273056823703 385.32742943867777 321.5629788171318Q381.94033295869485 327.19865195189345 375.3653809681397 330.67113741876676Q368.8188919732146 334.17208588127016 359.19839945023773 334.17208588127016L359.19839945023773 334.17208588127016Q359.79612235847003 331.29732332262915 359.9953633278808 328.93489468533005Q360.22306729292166 326.57246604803106 360.22306729292166 324.722371332074L360.22306729292166 324.722371332074Q360.22306729292166 314.4756929052347 355.8113029702547 310.092391578198Q351.39953864758786 305.680627255531 346.07695846475747 305.680627255531L346.07695846475747 305.680627255531Q340.95361925133784 305.680627255531 336.22876197673975 309.4662056743355Q331.53236769777175 313.25178409314003 331.53236769777175 321.6483678040222L331.53236769777175 321.6483678040222Q331.53236769777175 328.8210427028097 335.3179461165762 333.9443819162293Q339.10352453538076 339.06772112964893 345.1376796089638 342.96715153097387Q351.2002976781771 346.8665819322988 357.94602764251295 350.56677136421297L357.94602764251295 350.56677136421297Q364.91946157188966 354.23849780049704 371.38056157992435 358.6502621231639Q377.84166158795915 363.06202644583084 382.1395739281056 369.0107925325236Q386.4374862682521 374.9310956235863 386.4374862682521 383.9538652383309L386.4374862682521 383.9538652383309Q386.4374862682521 393.37511679189697 381.31414705483246 402.31249741975114Q376.19080784141283 411.2214150519753 367.39574219170913 418.08099699883155Q358.57221354637534 424.9405789456879 347.1870152943317 429.0392503164236Q335.8302800379182 433.1379216871593 323.33502495630034 433.1379216871593Z " fill="skyblue" transform="matrix(0.7385564323108341,0,0,0.7385564323108341,0,35.49489084567924)"/><path d="M615.2168585068355 402.2445162253165L615.2168585068355 402.2445162253165Q605.3539673570108 402.2445162253165 598.8081920647503 399.52448122211365Q592.284530878207 396.82656032462796 589.1000996549451 392.6027661326626Q585.9156684316833 388.3789719406973 585.9156684316833 384.0888354315806L585.9156684316833 384.0888354315806Q585.9156684316833 378.0295704650963 591.3336243323718 373.34138005307193Q596.7515802330604 368.65318964104756 605.9731623170894 368.65318964104756L605.9731623170894 368.65318964104756Q605.9731623170894 376.7690664392218 608.0518882544964 381.61205559126586Q610.1306141919035 386.477158849027 613.3813877323166 388.55588478643404Q616.6542753784468 390.61249661812394 619.683907861689 390.61249661812394L619.683907861689 390.61249661812394Q623.3327353050098 390.61249661812394 625.8095151453246 388.46742836356566Q628.2641808799223 386.32236010900726 628.2641808799223 383.1379288857455L628.2641808799223 383.1379288857455Q628.2641808799223 378.6708795308921 623.6644468907663 375.3316495676106Q619.0425987958931 371.99241960432903 611.7228298035344 367.85708183523207L611.7228298035344 367.85708183523207Q608.0518882544964 365.6235571578054 603.7617517453798 362.68238109743163Q599.4495011305461 359.7190909313407 596.4198686473039 355.5174108450925Q593.4123502697788 351.2936166531272 593.4123502697788 345.38915042666247L593.4123502697788 345.38915042666247Q593.4123502697788 339.1972008258756 596.9948353959485 334.42055399098285Q600.577320522118 329.6439071560901 606.4596726428656 326.37101950995986Q612.3420247636132 323.0981318638296 619.1973975359128 321.4395739350474Q626.0527703082126 319.75890190054815 632.576431494756 319.75890190054815L632.576431494756 319.75890190054815Q644.8276460620272 319.75890190054815 651.0417097685312 324.6903474754606Q657.2557734750352 329.6439071560901 657.2557734750352 335.21666179679835L657.2557734750352 335.21666179679835Q657.2557734750352 339.9933086316911 652.4791266401425 343.7969348150316Q647.7024798052496 347.62267510408924 637.8174745497078 347.62267510408924L637.8174745497078 347.62267510408924Q637.9943873954445 339.5067983059149 634.4782445864262 335.76951443972575Q630.984215883125 332.0322305735365 627.0036768540477 332.0322305735365L627.0036768540477 332.0322305735365Q624.1288431108253 332.0322305735365 622.227030019155 333.7792449251871Q620.3031028217677 335.52625927683766 620.3031028217677 338.86548924011913L620.3031028217677 338.86548924011913Q620.3031028217677 342.6912295291768 622.7798826620824 345.47760684953084Q625.2566625023971 348.263984169885 628.9939463685864 350.4090524244433Q632.7312302347757 352.5541206790016 636.711769263853 354.4780478763889L636.711769263853 354.4780478763889Q642.1297251645415 357.021170033855 646.9063719994342 359.89600377707745Q651.683018834327 362.74872341458286 654.7126513175691 366.4196649636208Q657.7201696950942 370.0684924069417 657.7201696950942 375.3316495676106L657.7201696950942 375.3316495676106Q657.7201696950942 382.49661981994973 651.926273997215 388.62222710358526Q646.1102641936188 394.7478343872209 636.4021717838136 398.5072323591272Q626.6719652682914 402.2445162253165 615.2168585068355 402.2445162253165ZM682.8860220011495 401.448408419501L682.8860220011495 401.448408419501Q676.0306492288497 401.448408419501 671.8953114597527 396.82656032462796Q667.7599736906558 392.2047122297548 667.7599736906558 384.2436341716003L667.7599736906558 384.2436341716003Q667.7599736906558 379.95349766248364 668.8656789765106 373.0317825730326Q669.9934983680826 366.08795337786444 671.6520562968647 357.72882141680213Q673.332728331364 349.36968945573983 674.9249439429949 340.7009600146381Q676.5171595546258 332.0322305735365 677.6228648404806 323.8942396696451Q678.7506842320525 315.7783628714709 678.7506842320525 309.5642991649669L678.7506842320525 309.5642991649669Q678.7506842320525 301.780133952549 676.6719582946455 298.2639911435308L676.6719582946455 298.2639911435308L676.6719582946455 297.3130845976957Q680.1881011036638 293.33254556861834 684.3234388727608 291.43073247694815Q688.4587766418578 289.50680527956075 692.439315670935 289.50680527956075L692.439315670935 289.50680527956075Q698.4985806374193 289.50680527956075 702.788717146536 293.81905589439447Q707.0788536556527 298.1091924035111 707.0788536556527 306.7115795274615L707.0788536556527 306.7115795274615Q707.0788536556527 311.33342762233457 705.8183496297781 318.01188754889756Q704.5357314981866 324.6903474754606 702.788717146536 332.0322305735365Q701.0417027948854 339.3519995658953 699.2946884432348 345.72086201241893L699.2946884432348 345.72086201241893Q702.3022068207598 339.81639578595434 707.3221088185406 334.02250008807516Q712.3420108163215 328.20649028447883 718.7993296857135 324.3807499954212Q725.2345344493885 320.55500970636365 732.244705961708 320.55500970636365L732.244705961708 320.55500970636365Q740.2057840198624 320.55500970636365 742.9921613402166 325.486455281276Q745.7785386605707 330.4400149619056 745.7785386605707 337.7597839542643L745.7785386605707 337.7597839542643Q745.7785386605707 344.4382438808274 744.3411217889595 352.0012680360742Q742.9037049173483 359.5642921913211 741.4884021514541 366.4860072807721Q740.0509852798428 373.4298364759403 740.0509852798428 378.0295704650963L740.0509852798428 378.0295704650963Q740.0509852798428 384.7301444973764 744.0315243089201 384.7301444973764L744.0315243089201 384.7301444973764Q745.7785386605707 384.7301444973764 747.1274991093136 383.6907815286729Q748.4764595580564 382.65141855996933 749.1177686238523 381.3909145340949L749.1177686238523 381.3909145340949L750.2455880154241 382.1870223399103Q750.2455880154241 388.3789719406973 747.215955532182 392.691222555531Q744.1863230489398 396.98135906464756 739.4981326369154 399.21488374207433Q734.787828119174 401.448408419501 729.8563825442616 401.448408419501L729.8563825442616 401.448408419501Q723.3327213577182 401.448408419501 718.0695641970493 397.06981548751594Q712.8285211420975 392.691222555531 712.8285211420975 382.80621729998904L712.8285211420975 382.80621729998904Q712.8285211420975 377.2334626592808 714.3322803308602 370.70980147273747Q715.8360395196227 364.18614028619413 717.2734563912338 358.0605330025585Q718.7108732628451 351.93492571892295 718.7108732628451 347.77747384410884L718.7108732628451 347.77747384410884Q718.7108732628451 342.38163204913747 714.8851329737874 342.38163204913747L714.8851329737874 342.38163204913747Q711.3911042704864 342.38163204913747 707.2557665013894 345.87566075243865Q703.0983146265753 349.36968945573983 700.0023398261819 354.63284661640864Q696.9063650257884 359.89600377707745 695.9333443742362 364.9822480920096L695.9333443742362 364.9822480920096Q695.6237468941969 366.2648662236012 695.6237468941969 368.0118805752518L695.6237468941969 368.0118805752518Q695.6237468941969 371.99241960432903 696.81790860292 375.6412470476499Q698.0120703116432 379.31218859668786 698.0120703116432 384.2436341716003L698.0120703116432 384.2436341716003Q698.0120703116432 391.56340316395904 694.1863300225856 396.51696284458853Q690.360589733528 401.448408419501 682.8860220011495 401.448408419501ZM793.3902082694785 401.91280463956L793.3902082694785 401.91280463956Q781.4485911822467 401.91280463956 773.6423118641118 397.1361578046673Q765.8360325459769 392.35951096977453 762.0987486797876 384.4868893344883Q758.3614648135983 376.6142676992022 758.3614648135983 367.6801689894953L758.3614648135983 367.6801689894953Q758.3614648135983 359.2546947112817 761.4574396139918 350.807106327351Q764.5755285201024 342.38163204913747 770.5463370637183 335.4378028539693Q776.5171456073342 328.51608776451826 785.0974186255676 324.2922935725528Q793.6998057495179 320.0906134863046 804.8453150309343 320.0906134863046L804.8453150309343 320.0906134863046Q816.7869321181662 320.0906134863046 824.5047550134327 324.9336026383486Q832.2446920144164 329.7987058961098 835.9819758806055 337.7597839542643Q839.7192597467948 345.72086201241893 839.7192597467948 354.78764535642836L839.7192597467948 354.78764535642836Q839.7192597467948 363.0804350003393 836.6896272635527 371.4395669614016Q833.6599947803105 379.7986989224639 827.6891862366946 386.72041401191507Q821.7183776930787 393.6421291013661 813.1381046748453 397.77746687046306Q804.535717550895 401.91280463956 793.3902082694785 401.91280463956ZM797.6803447785952 388.3789719406973L797.6803447785952 388.3789719406973Q801.9925953934289 388.3789719406973 804.8453150309343 383.9340366915609Q807.7201487741568 379.4669873367076 809.157565645768 372.54527224725643Q810.5728684116622 365.6235571578054 810.5728684116622 358.4585869054663L810.5728684116622 358.4585869054663Q810.5728684116622 352.08972445894256 809.378706702939 346.42851339536605Q808.1845449942158 340.7894164375065 805.7962215767694 337.2069313113369Q803.407898159323 333.62444618516736 799.6042719759826 333.62444618516736L799.6042719759826 333.62444618516736Q795.4468201011684 333.62444618516736 792.5056440407947 338.06938143430375Q789.5644679804209 342.53643078915707 788.1270511088097 349.36968945573983Q786.6896342371984 356.2250622280395 786.6896342371984 363.54483122039835L786.6896342371984 363.54483122039835Q786.6896342371984 369.913693666922 787.8837959459216 375.5749047304986Q789.0779576546448 381.21400168835805 791.4662810720912 384.7964868145277Q793.8546044895376 388.3789719406973 797.6803447785952 388.3789719406973ZM863.6024939212585 432.65141158632355L863.6024939212585 432.65141158632355Q859.6219548921813 432.65141158632355 856.0394697660117 430.5726856489165Q852.4569846398422 428.5160738172266 850.1571176452642 423.89422572235355Q847.8351365449691 419.2723776274804 847.8351365449691 411.4660983093455L847.8351365449691 411.4660983093455Q847.8351365449691 403.9915305769671 849.8254060595077 395.234344712997Q851.8156755740463 386.477158849027 854.3587977315124 377.6315165621885Q856.9240339946955 368.80798838106716 858.9143035092342 360.84691032291266Q860.9045730237729 352.88583226475805 860.9045730237729 346.67176855825403L860.9045730237729 346.67176855825403Q860.9045730237729 342.049920463381 859.6219548921813 340.3913625345988Q858.3393367605897 338.71069050009953 856.592322408939 338.71069050009953L856.592322408939 338.71069050009953Q855.0001067973081 338.71069050009953 853.4078911856773 339.6615970459346Q851.8156755740463 340.6125035917697 850.7099702881915 341.8951217233613L850.7099702881915 341.8951217233613L849.5821508966196 341.2538126575655Q849.5821508966196 335.6810580168574 852.8550385427498 330.992867604833Q856.1279261888801 326.2825630870915 861.2141705038122 323.4298434495861Q866.3004148187442 320.55500970636365 871.7183707194328 320.55500970636365L871.7183707194328 320.55500970636365Q876.9815278801017 320.55500970636365 880.1659591033635 323.186588286698Q883.3503903266253 325.81816686703246 885.0089482554076 329.9535046361294Q886.6896202899068 334.0888424052264 886.9992177699462 338.86548924011913L886.9992177699462 338.86548924011913Q893.0584827364305 329.31219557033364 900.2234529887696 324.6903474754606Q907.3884232411087 320.0906134863046 913.7572856876325 320.0906134863046L913.7572856876325 320.0906134863046Q922.3596728115828 320.0906134863046 928.3304813551988 328.20649028447883Q934.3012898988147 336.32236708265316 934.3012898988147 353.3502284848171L934.3012898988147 353.3502284848171Q934.3012898988147 369.2723846011262 929.1929314781655 380.01983997963487Q924.1066871632333 390.76729535814366 916.3888642679669 396.11890894168084Q908.6710413727003 401.448408419501 900.7099633145458 401.448408419501L900.7099633145458 401.448408419501Q893.854590542246 401.448408419501 888.0385807386497 397.37941296755537Q882.2225709350535 393.3325316213268 879.0381397117916 385.5262523031919L879.0381397117916 385.5262523031919Q877.6228369458975 392.0499134897352 876.583473977194 398.41877593625884Q875.5441110084905 404.78763838278246 875.5441110084905 410.8469033492669L875.5441110084905 410.8469033492669Q875.5441110084905 414.18613331254835 875.9421649113982 417.3705645358102Q876.3402188143059 420.55499575907197 877.291125360141 423.73942698233384L877.291125360141 423.73942698233384L877.291125360141 424.69033352816894Q875.2345135284511 428.6708725572463 871.4751155565448 430.66114207178487Q867.7378316903555 432.65141158632355 863.6024939212585 432.65141158632355ZM892.9036839964108 385.9906485232509L892.9036839964108 385.9906485232509Q896.7294242854684 385.9906485232509 899.5821439229738 382.9831301457258Q902.4569776661963 379.95349766248364 904.5135894978863 375.0883944047225Q906.5923154352932 370.24540525267844 907.6316784039968 364.6726506119702Q908.6710413727003 359.0998959712621 908.6710413727003 353.83673881059315L908.6710413727003 353.83673881059315Q908.6710413727003 347.1582788840302 906.9019129153327 342.4479743662887Q905.1548985636821 337.7597839542643 901.5060711203612 337.7597839542643L901.5060711203612 337.7597839542643Q896.8842230254882 337.7597839542643 891.1566696447603 347.06982246116183Q885.4070021583153 356.37986096805923 882.2225709350535 375.3316495676106L882.2225709350535 375.3316495676106Q883.6599878066647 380.26309514252296 886.5348215498872 383.1379288857455Q889.3875411873926 385.9906485232509 892.9036839964108 385.9906485232509ZM959.7767396849094 433.1379219120996L959.7767396849094 433.1379219120996Q955.1548915900362 433.1379219120996 951.0195538209393 431.45724987760036Q946.8842160518423 429.7765778431011 945.2920004402114 426.4373478798195L945.2920004402114 426.4373478798195Q949.0956266235519 410.2055942834711 951.5724064638666 397.62266813044334Q954.0491863041814 385.0397419774157 955.4644890700756 375.1768508275909Q956.9019059416869 365.29184557204894 957.5432150074826 357.1096264567234Q958.1845240732785 348.9052932356808 958.3393228132982 341.2538126575655L958.3393228132982 341.2538126575655Q952.9213669126095 341.58552424332197 947.9899213376971 342.2931756262691Q943.0584757627847 343.0008270092161 939.3875342137468 344.28344514080766L939.3875342137468 344.28344514080766L939.0779367337075 343.17773985495285Q943.6997848285805 338.5558917600798 948.6312304034929 335.4378028539693Q953.5626759784054 332.3418280535758 958.4941215533178 330.4400149619056L958.4941215533178 330.4400149619056L958.4941215533178 318.3214850289369Q958.4941215533178 306.0702704616657 963.4255671282301 298.3524475663992Q968.3791268088596 290.63462467113266 976.0969497041262 286.87522669922635Q983.8147725993928 283.1379428330371 992.0854481375867 283.1379428330371L992.0854481375867 283.1379428330371Q1003.0761586789833 283.1379428330371 1008.5825710025404 288.40109999370594Q1014.0668692203801 293.6421430486577 1014.0668692203801 300.18791834091815L1014.0668692203801 300.18791834091815Q1014.0668692203801 304.9645651758109 1011.1256931600064 309.40950042494717Q1008.1845170996326 313.8765497798006 1002.280050873168 316.8177258401744Q996.3976987524204 319.75890190054815 987.4857141484307 319.75890190054815L987.4857141484307 319.75890190054815Q990.0288363058967 315.1370538056751 991.3777967546396 310.53731981651913Q992.7267572033825 305.91547172164604 992.7267572033825 302.39932891262777L992.7267572033825 302.39932891262777Q992.7267572033825 299.7014080151421 991.930649397567 298.0207359806427Q991.1345415917515 296.3621780518605 989.6971247201403 296.3621780518605L989.6971247201403 296.3621780518605Q986.6896063426152 296.3621780518605 983.9032290222611 303.9252022071074Q981.1168517019071 311.4882263623542 981.1168517019071 323.7394409296254L981.1168517019071 323.7394409296254L981.1168517019071 326.76907341286767Q985.7165856910631 326.61427467284796 989.9403798830283 326.92387215288727Q994.1641740749938 327.25558373864374 997.8351156240317 327.56518121868305L997.8351156240317 327.56518121868305Q998.144713104071 328.67088650453786 998.2995118440906 329.9535046361294Q998.4543105841103 331.236122767721 998.4543105841103 332.4966267935955L998.4543105841103 332.4966267935955Q998.4543105841103 334.8849502110419 997.8351156240317 337.27327362848825Q997.1938065582358 339.6615970459346 996.065987166664 342.2047192034007L996.065987166664 342.2047192034007Q993.2132675291587 341.8951217233613 989.5423259801206 341.58552424332197Q985.8934985367998 341.2538126575655 981.7360466619857 341.0990139175459L981.7360466619857 341.0990139175459L981.7360466619857 344.5930426208471Q981.7360466619857 353.3502284848171 981.0283952790387 364.8274493519899Q980.3207438960916 376.2825561134457 978.3968166987042 392.0499134897352Q976.4950036070339 407.8172708660246 972.5144645779567 429.6217791030814L972.5144645779567 429.6217791030814Q967.5830190030442 433.1379219120996 959.7767396849094 433.1379219120996ZM1024.5710694360007 401.448408419501L1024.5710694360007 401.448408419501Q1020.2809329268841 401.448408419501 1016.2119374749384 399.3033401649427Q1012.1650561287099 397.1361578046673 1009.5998198655268 392.35951096977453Q1007.0566977080607 387.5828641348818 1007.0566977080607 380.10829640250336L1007.0566977080607 380.10829640250336Q1007.0566977080607 373.4298364759403 1008.8921684825797 364.4293954490822Q1010.7276392570986 355.42895442222414 1013.0275062516766 345.72086201241893Q1015.3494873519717 336.01276960261373 1017.0965017036224 326.76907341286767Q1018.8435160552729 317.5253772231215 1018.6887173152533 310.3604069707824L1018.6887173152533 310.3604069707824Q1018.6887173152533 303.5271483041996 1017.0965017036224 300.6523145609772L1017.0965017036224 300.6523145609772L1016.9417029636027 300.18791834091815Q1018.6887173152533 295.07955992026893 1023.1336525643896 292.22684028276353Q1027.600701919243 289.3520065395411 1032.5321474941554 289.3520065395411L1032.5321474941554 289.3520065395411Q1038.1049021348636 289.3520065395411 1042.4834950668487 293.57580073150643Q1046.8620879988337 297.7995949234718 1046.8620879988337 307.66248607329663L1046.8620879988337 307.66248607329663Q1046.8620879988337 312.9256432339655 1045.6015839729591 320.15695580345584Q1044.3189658413676 327.41038247866345 1042.571951489717 335.61471569970604Q1040.8249371380664 343.7969348150316 1038.9894663635473 351.7580128731862Q1037.1539955890285 359.7190909313407 1035.871377457437 366.4196649636208Q1034.6108734315624 373.09812489018384 1034.6108734315624 377.41037550501756L1034.6108734315624 377.41037550501756Q1034.6108734315624 381.85531075415395 1035.871377457437 383.5359827886532Q1037.1539955890285 385.1945407174354 1038.7462112006592 385.1945407174354L1038.7462112006592 385.1945407174354Q1040.49322555231 385.1945407174354 1042.085441163941 383.8455802686925Q1043.677656775572 382.49661981994973 1044.1641671013479 381.3909145340949L1044.1641671013479 381.3909145340949L1045.4246711272224 381.70051201413423Q1045.2698723872027 387.4280653948621 1042.1738975868093 391.8951147497155Q1039.0558086806986 396.3400499988518 1034.3676182686743 398.9052862620349Q1029.67942785665 401.448408419501 1024.5710694360007 401.448408419501ZM1085.0752626779756 315.6235641314512L1085.0752626779756 315.6235641314512Q1078.7064002314519 315.6235641314512 1074.6595188852234 311.7314815252423Q1070.5905234332777 307.8172848133163 1070.5905234332777 301.93493269256874L1070.5905234332777 301.93493269256874Q1070.5905234332777 295.56607024604506 1075.3671702681704 290.94422215117197Q1080.1438171030632 286.32237405629894 1086.999189875363 286.32237405629894L1086.999189875363 286.32237405629894Q1093.3680523218868 286.32237405629894 1097.4149336681153 290.3029130853762Q1101.483929120061 294.2834521144535 1101.483929120061 300.18791834091815L1101.483929120061 300.18791834091815Q1101.483929120061 306.5567807874418 1096.7072822851683 311.09017245944653Q1091.9306354502753 315.6235641314512 1085.0752626779756 315.6235641314512ZM1073.9297533965591 401.448408419501L1073.9297533965591 401.448408419501Q1067.7156896900551 401.448408419501 1062.7842441151429 397.06981548751594Q1057.8527985402304 392.691222555531 1057.8527985402304 382.9831301457258L1057.8527985402304 382.9831301457258Q1057.8527985402304 377.41037550501756 1059.3565577289928 372.54527224725643Q1060.8824310234727 367.6801689894953 1062.8727005380113 363.0804350003393Q1064.8629700525498 358.4585869054663 1066.3667292413124 354.07999397348124Q1067.8926025357919 349.7014010414962 1067.8926025357919 345.38915042666247L1067.8926025357919 345.38915042666247Q1067.8926025357919 341.58552424332197 1066.6099844042005 339.9048522088227Q1065.3273662726087 338.22418017432335 1063.5803519209583 338.22418017432335L1063.5803519209583 338.22418017432335Q1060.8824310234727 338.22418017432335 1058.3393088660064 341.7403229833417L1058.3393088660064 341.7403229833417L1057.2114894744345 341.0990139175459Q1057.8527985402304 334.73015147102217 1061.2804849263803 330.1967597990175Q1064.70817131253 325.66336812701286 1069.705959204594 323.0981318638296Q1074.7258612023747 320.55500970636365 1079.657306777287 320.55500970636365L1079.657306777287 320.55500970636365Q1085.7165717437715 320.55500970636365 1090.1836210986248 324.46920641828956Q1094.628556347761 328.36128902449855 1094.628556347761 337.11847488846854L1094.628556347761 337.11847488846854Q1094.628556347761 342.38163204913747 1093.1247971589987 348.17552774701664Q1091.5989238645188 353.99153755061286 1089.6086543499803 359.7190909313407Q1087.6183848354417 365.4687584177857 1086.114625646679 370.40020399269815Q1084.6108664579165 375.3316495676106 1084.6108664579165 378.8256782709117L1084.6108664579165 378.8256782709117Q1084.6108664579165 381.85531075415395 1085.8050281666397 383.1379288857455Q1086.999189875363 384.3984329116199 1088.414492641257 384.3984329116199L1088.414492641257 384.3984329116199Q1089.8519095128684 384.3984329116199 1091.2008699616113 383.5359827886532Q1092.5719445160712 382.65141855996933 1093.1911394761498 381.5457132741145L1093.1911394761498 381.5457132741145L1094.318958867722 381.85531075415395Q1094.318958867722 387.75977698061854 1091.2008699616113 392.1383699126036Q1088.1048951612179 396.51696284458853 1083.4830470663446 398.97162857918624Q1078.8611989714716 401.448408419501 1073.9297533965591 401.448408419501ZM1112.297726815721 401.91280463956L1112.297726815721 401.91280463956Q1106.9018850207494 401.91280463956 1103.5405409517507 398.33031951339046Q1100.2013109884692 394.7478343872209 1100.2013109884692 389.50679133226913L1100.2013109884692 389.50679133226913Q1100.2013109884692 387.11846791482276 1100.9974187942848 384.5753457573567Q1101.7935266001002 382.01010949417355 1103.3857422117312 379.4669873367076L1103.3857422117312 379.4669873367076Q1106.5701734349932 379.95349766248364 1109.113295592459 379.95349766248364L1109.113295592459 379.95349766248364Q1116.919574910594 379.95349766248364 1122.3375308112825 376.21621379629437Q1127.7554867119711 372.45681582438806 1130.939917935233 365.6235571578054L1130.939917935233 365.6235571578054Q1124.8806529687486 352.24452319896227 1120.9001139396712 346.98136603829346Q1116.919574910594 341.7403229833417 1114.376452753128 341.7403229833417L1114.376452753128 341.7403229833417Q1112.9390358815167 341.7403229833417 1111.833330595662 342.93448469206487Q1110.7055112040898 344.12864640078806 1109.5998059182352 345.87566075243865L1109.5998059182352 345.87566075243865L1108.8036981124196 345.5660632723992Q1109.5998059182352 334.57535273100257 1114.0668552730885 327.16712731577536Q1118.5117905222248 319.75890190054815 1125.3671632945247 319.75890190054815L1125.3671632945247 319.75890190054815Q1129.9890113893978 319.75890190054815 1133.7926375727384 322.94333312381Q1137.6183778617958 326.1277643470718 1140.8028090850576 331.05920992198423Q1143.9872403083195 336.01276960261373 1146.5303624657854 341.3422690804339Q1149.0955987289688 346.67176855825403 1151.1522105606587 350.807106327351L1151.1522105606587 350.807106327351Q1154.6683533696769 335.0397489510616 1161.7448671991478 327.56518121868305Q1168.8213810286184 320.0906134863046 1175.5219550608986 320.0906134863046L1175.5219550608986 320.0906134863046Q1180.4534006358108 320.0906134863046 1182.5984688903693 323.4298434495861Q1184.7435371449276 326.76907341286767 1184.7435371449276 331.5457202477604L1184.7435371449276 331.5457202477604Q1184.7435371449276 339.81639578595434 1180.1438031557718 347.4678763640695L1180.1438031557718 347.4678763640695Q1179.0159837641997 347.3130776240498 1177.8218220554766 347.22462120118144Q1176.6276603467531 347.1582788840302 1175.3671563208786 347.1582788840302L1175.3671563208786 347.1582788840302Q1168.998293874355 347.1582788840302 1163.646680290818 350.099454944404Q1158.3171808129978 353.04063100477777 1154.9779508497163 358.1268753197098L1154.9779508497163 358.1268753197098Q1161.1920145562203 369.75889492690237 1165.017754845278 374.44708533892674Q1168.8213810286184 379.15738985666815 1171.696214771841 379.15738985666815L1171.696214771841 379.15738985666815Q1174.5710485150632 379.15738985666815 1175.9863512809575 375.6412470476499L1175.9863512809575 375.6412470476499L1177.2689694125493 376.127757373426Q1176.782459086773 382.9831301457258 1174.725847255083 388.86548226647335Q1172.647121317676 394.7478343872209 1169.0646361915065 398.33031951339046Q1165.482151065337 401.91280463956 1160.2411080103852 401.91280463956L1160.2411080103852 401.91280463956Q1154.8231521096966 401.91280463956 1150.289760437692 397.9322656104828Q1145.7342546599702 393.9517265814054 1141.9306284766296 387.67132055775016Q1138.104888187572 381.3909145340949 1134.7656582242903 374.2259442817558L1134.7656582242903 374.2259442817558Q1133.483040092699 383.9340366915609 1129.8120985436608 390.05964397519654Q1126.16327110034 396.1852512588322 1121.4529665825985 399.0600850020546Q1116.7647761705744 401.91280463956 1112.297726815721 401.91280463956Z " fill="skyblue" transform="matrix(0.7385564323108341,0,0,0.7385564323108341,0,35.49489084567924)"/></g></svg>